<mxfile host="app.diagrams.net" agent="Mozilla/5.0 (Windows NT 10.0; Win64; x64) AppleWebKit/537.36 (KHTML, like Gecko) Chrome/132.0.0.0 Safari/537.36" version="26.0.9">
  <diagram id="Lz21QKMlTZkSokL3q0T9" name="Page-3">
    <mxGraphModel dx="3170" dy="2810" grid="1" gridSize="8" guides="1" tooltips="1" connect="1" arrows="1" fold="1" page="1" pageScale="1" pageWidth="1600" pageHeight="1100" math="0" shadow="0">
      <root>
        <mxCell id="0" />
        <mxCell id="1" parent="0" />
        <mxCell id="G4arTZ-eLfZ_415VaoW4-1" value="" style="rounded=0;whiteSpace=wrap;html=1;fillColor=none;fontFamily=Comic Sans MS;fontSize=11;" parent="1" vertex="1">
          <mxGeometry x="224" y="480" width="1156" height="320" as="geometry" />
        </mxCell>
        <mxCell id="41eCFME9FWgPAuhepwrC-23" value="" style="rounded=0;whiteSpace=wrap;html=1;fillColor=none;fontFamily=Comic Sans MS;fontSize=11;" parent="1" vertex="1">
          <mxGeometry x="340" y="225" width="300" height="50" as="geometry" />
        </mxCell>
        <mxCell id="AawS_CYTbvHG_qcbmdIw-1" value=". . ." style="rounded=1;whiteSpace=wrap;html=1;fontFamily=Comic Sans MS;fontStyle=1;fontSize=23;" parent="1" vertex="1">
          <mxGeometry x="722.5" y="135" width="120" height="60" as="geometry" />
        </mxCell>
        <mxCell id="41eCFME9FWgPAuhepwrC-1" value="App Server" style="shape=ext;double=1;rounded=0;whiteSpace=wrap;html=1;fillColor=#d5e8d4;strokeColor=#000000;fontFamily=Comic Sans MS;" parent="1" vertex="1">
          <mxGeometry x="695" y="301.67" width="135" height="80" as="geometry" />
        </mxCell>
        <mxCell id="41eCFME9FWgPAuhepwrC-2" value="App Server" style="shape=ext;double=1;rounded=0;whiteSpace=wrap;html=1;fillColor=#d5e8d4;strokeColor=#000000;fontFamily=Comic Sans MS;" parent="1" vertex="1">
          <mxGeometry x="705" y="311.67" width="135" height="80" as="geometry" />
        </mxCell>
        <mxCell id="41eCFME9FWgPAuhepwrC-3" value="App Server" style="shape=ext;double=1;rounded=0;whiteSpace=wrap;html=1;fillColor=#d5e8d4;strokeColor=#000000;fontFamily=Comic Sans MS;" parent="1" vertex="1">
          <mxGeometry x="715" y="321.67" width="135" height="80" as="geometry" />
        </mxCell>
        <mxCell id="41eCFME9FWgPAuhepwrC-4" value="" style="endArrow=classic;html=1;rounded=0;exitX=0.5;exitY=1;exitDx=0;exitDy=0;fontFamily=Comic Sans MS;" parent="1" source="AawS_CYTbvHG_qcbmdIw-1" edge="1">
          <mxGeometry width="50" height="50" relative="1" as="geometry">
            <mxPoint x="790" y="205" as="sourcePoint" />
            <mxPoint x="783" y="330" as="targetPoint" />
          </mxGeometry>
        </mxCell>
        <mxCell id="41eCFME9FWgPAuhepwrC-5" value="Requests" style="edgeLabel;html=1;align=center;verticalAlign=middle;resizable=0;points=[];fontFamily=Comic Sans MS;" parent="41eCFME9FWgPAuhepwrC-4" vertex="1" connectable="0">
          <mxGeometry x="-0.1583" y="2" relative="1" as="geometry">
            <mxPoint as="offset" />
          </mxGeometry>
        </mxCell>
        <mxCell id="41eCFME9FWgPAuhepwrC-6" value="User Management" style="swimlane;fontStyle=0;childLayout=stackLayout;horizontal=1;startSize=30;horizontalStack=0;resizeParent=1;resizeParentMax=0;resizeLast=0;collapsible=1;marginBottom=0;whiteSpace=wrap;html=1;fillColor=#dae8fc;strokeColor=#000000;fontFamily=Comic Sans MS;fontColor=#000000;" parent="1" vertex="1">
          <mxGeometry x="1052.5" y="306.67" width="210" height="90" as="geometry" />
        </mxCell>
        <mxCell id="41eCFME9FWgPAuhepwrC-7" value="Authentication OAUTH2" style="text;strokeColor=#000000;fillColor=#dae8fc;align=left;verticalAlign=middle;spacingLeft=4;spacingRight=4;overflow=hidden;points=[[0,0.5],[1,0.5]];portConstraint=eastwest;rotatable=0;whiteSpace=wrap;html=1;fontFamily=Comic Sans MS;fontColor=#000000;" parent="41eCFME9FWgPAuhepwrC-6" vertex="1">
          <mxGeometry y="30" width="210" height="30" as="geometry" />
        </mxCell>
        <mxCell id="41eCFME9FWgPAuhepwrC-8" value="Role Management" style="text;strokeColor=#000000;fillColor=#dae8fc;align=left;verticalAlign=middle;spacingLeft=4;spacingRight=4;overflow=hidden;points=[[0,0.5],[1,0.5]];portConstraint=eastwest;rotatable=0;whiteSpace=wrap;html=1;fontFamily=Comic Sans MS;fontColor=#000000;" parent="41eCFME9FWgPAuhepwrC-6" vertex="1">
          <mxGeometry y="60" width="210" height="30" as="geometry" />
        </mxCell>
        <mxCell id="41eCFME9FWgPAuhepwrC-9" value="" style="curved=1;endArrow=classic;html=1;rounded=0;exitX=1;exitY=0.5;exitDx=0;exitDy=0;entryX=0;entryY=0.5;entryDx=0;entryDy=0;fontFamily=Comic Sans MS;" parent="1" source="41eCFME9FWgPAuhepwrC-3" target="41eCFME9FWgPAuhepwrC-7" edge="1">
          <mxGeometry width="50" height="50" relative="1" as="geometry">
            <mxPoint x="1030" y="401.67" as="sourcePoint" />
            <mxPoint x="1080" y="351.67" as="targetPoint" />
            <Array as="points">
              <mxPoint x="1000" y="321.67" />
            </Array>
          </mxGeometry>
        </mxCell>
        <mxCell id="41eCFME9FWgPAuhepwrC-10" value="Authenticate User" style="edgeLabel;html=1;align=center;verticalAlign=middle;resizable=0;points=[];fontFamily=Comic Sans MS;" parent="41eCFME9FWgPAuhepwrC-9" vertex="1" connectable="0">
          <mxGeometry x="0.0219" y="-4" relative="1" as="geometry">
            <mxPoint y="-1" as="offset" />
          </mxGeometry>
        </mxCell>
        <mxCell id="41eCFME9FWgPAuhepwrC-11" value="" style="curved=1;endArrow=classic;html=1;rounded=0;entryX=1.008;entryY=0.631;entryDx=0;entryDy=0;entryPerimeter=0;exitX=0;exitY=0.75;exitDx=0;exitDy=0;fontFamily=Comic Sans MS;" parent="1" source="41eCFME9FWgPAuhepwrC-6" target="41eCFME9FWgPAuhepwrC-3" edge="1">
          <mxGeometry width="50" height="50" relative="1" as="geometry">
            <mxPoint x="910" y="451.6700000000001" as="sourcePoint" />
            <mxPoint x="990" y="421.6700000000001" as="targetPoint" />
            <Array as="points">
              <mxPoint x="940" y="421.6700000000001" />
            </Array>
          </mxGeometry>
        </mxCell>
        <mxCell id="41eCFME9FWgPAuhepwrC-12" value="Role-Based Access" style="edgeLabel;html=1;align=center;verticalAlign=middle;resizable=0;points=[];fontFamily=Comic Sans MS;" parent="41eCFME9FWgPAuhepwrC-11" vertex="1" connectable="0">
          <mxGeometry x="-0.0064" y="-15" relative="1" as="geometry">
            <mxPoint x="1" as="offset" />
          </mxGeometry>
        </mxCell>
        <mxCell id="41eCFME9FWgPAuhepwrC-13" value="API Gateway" style="strokeWidth=2;html=1;shape=mxgraph.flowchart.decision;whiteSpace=wrap;fillColor=#d5e8d4;strokeColor=#000000;fontFamily=Comic Sans MS;" parent="1" vertex="1">
          <mxGeometry x="430" y="300.01" width="120" height="123.33" as="geometry" />
        </mxCell>
        <mxCell id="41eCFME9FWgPAuhepwrC-14" value="" style="endArrow=classic;html=1;rounded=0;entryX=1;entryY=0.5;entryDx=0;entryDy=0;entryPerimeter=0;exitX=0;exitY=0.5;exitDx=0;exitDy=0;fontFamily=Comic Sans MS;" parent="1" source="41eCFME9FWgPAuhepwrC-3" target="41eCFME9FWgPAuhepwrC-13" edge="1">
          <mxGeometry width="50" height="50" relative="1" as="geometry">
            <mxPoint x="590" y="335" as="sourcePoint" />
            <mxPoint x="640" y="285" as="targetPoint" />
          </mxGeometry>
        </mxCell>
        <mxCell id="41eCFME9FWgPAuhepwrC-15" value="API Requests" style="edgeLabel;html=1;align=center;verticalAlign=middle;resizable=0;points=[];fontFamily=Comic Sans MS;" parent="41eCFME9FWgPAuhepwrC-14" vertex="1" connectable="0">
          <mxGeometry x="0.1719" y="2" relative="1" as="geometry">
            <mxPoint as="offset" />
          </mxGeometry>
        </mxCell>
        <mxCell id="41eCFME9FWgPAuhepwrC-16" value="Private API" style="rounded=1;whiteSpace=wrap;html=1;fontFamily=Comic Sans MS;" parent="1" vertex="1">
          <mxGeometry x="370" y="235" width="90" height="30" as="geometry" />
        </mxCell>
        <mxCell id="41eCFME9FWgPAuhepwrC-17" value="Public API" style="rounded=1;whiteSpace=wrap;html=1;fontFamily=Comic Sans MS;" parent="1" vertex="1">
          <mxGeometry x="520" y="235" width="90" height="30" as="geometry" />
        </mxCell>
        <mxCell id="41eCFME9FWgPAuhepwrC-18" value="" style="curved=1;endArrow=classic;html=1;rounded=0;exitX=0.5;exitY=1;exitDx=0;exitDy=0;entryX=0.817;entryY=0.294;entryDx=0;entryDy=0;entryPerimeter=0;fontFamily=Comic Sans MS;" parent="1" source="41eCFME9FWgPAuhepwrC-17" target="41eCFME9FWgPAuhepwrC-13" edge="1">
          <mxGeometry width="50" height="50" relative="1" as="geometry">
            <mxPoint x="680" y="385" as="sourcePoint" />
            <mxPoint x="730" y="335" as="targetPoint" />
            <Array as="points">
              <mxPoint x="590" y="285" />
              <mxPoint x="580" y="325" />
            </Array>
          </mxGeometry>
        </mxCell>
        <mxCell id="41eCFME9FWgPAuhepwrC-19" value="Access Data" style="edgeLabel;html=1;align=center;verticalAlign=middle;resizable=0;points=[];fontFamily=Comic Sans MS;" parent="41eCFME9FWgPAuhepwrC-18" vertex="1" connectable="0">
          <mxGeometry x="-0.0325" y="-5" relative="1" as="geometry">
            <mxPoint as="offset" />
          </mxGeometry>
        </mxCell>
        <mxCell id="41eCFME9FWgPAuhepwrC-20" value="" style="curved=1;endArrow=classic;html=1;rounded=0;exitX=0.5;exitY=1;exitDx=0;exitDy=0;entryX=0.248;entryY=0.242;entryDx=0;entryDy=0;entryPerimeter=0;fontFamily=Comic Sans MS;" parent="1" source="41eCFME9FWgPAuhepwrC-16" target="41eCFME9FWgPAuhepwrC-13" edge="1">
          <mxGeometry width="50" height="50" relative="1" as="geometry">
            <mxPoint x="680" y="385" as="sourcePoint" />
            <mxPoint x="730" y="335" as="targetPoint" />
            <Array as="points">
              <mxPoint x="410" y="305" />
            </Array>
          </mxGeometry>
        </mxCell>
        <mxCell id="41eCFME9FWgPAuhepwrC-21" value="Specialized Data" style="edgeLabel;html=1;align=center;verticalAlign=middle;resizable=0;points=[];fontFamily=Comic Sans MS;" parent="41eCFME9FWgPAuhepwrC-20" vertex="1" connectable="0">
          <mxGeometry x="0.0524" y="9" relative="1" as="geometry">
            <mxPoint as="offset" />
          </mxGeometry>
        </mxCell>
        <mxCell id="41eCFME9FWgPAuhepwrC-24" value="External" style="text;html=1;align=center;verticalAlign=middle;whiteSpace=wrap;rounded=0;fontFamily=Comic Sans MS;fontSize=11;" parent="1" vertex="1">
          <mxGeometry x="460" y="195" width="60" height="30" as="geometry" />
        </mxCell>
        <mxCell id="X9Cq_pv23FhvsYlwHoZe-1" value="Read API" style="shape=parallelogram;perimeter=parallelogramPerimeter;whiteSpace=wrap;html=1;fixedSize=1;fillColor=#d5e8d4;strokeColor=#000000;fontFamily=Comic Sans MS;" parent="1" vertex="1">
          <mxGeometry x="456" y="608" width="100" height="80" as="geometry" />
        </mxCell>
        <mxCell id="X9Cq_pv23FhvsYlwHoZe-2" value="Write API" style="shape=parallelogram;perimeter=parallelogramPerimeter;whiteSpace=wrap;html=1;fixedSize=1;fillColor=#d5e8d4;strokeColor=#000000;fontFamily=Comic Sans MS;" parent="1" vertex="1">
          <mxGeometry x="975" y="608" width="100" height="80" as="geometry" />
        </mxCell>
        <mxCell id="G4arTZ-eLfZ_415VaoW4-2" value="GET&amp;nbsp;/api/sensors/latest" style="rounded=1;whiteSpace=wrap;html=1;fontFamily=Comic Sans MS;fontSize=11;" parent="1" vertex="1">
          <mxGeometry x="260" y="505" width="140" height="30" as="geometry" />
        </mxCell>
        <mxCell id="G4arTZ-eLfZ_415VaoW4-3" value="GET&amp;nbsp;/api/sensors/historical" style="rounded=1;whiteSpace=wrap;html=1;fontFamily=Comic Sans MS;fontSize=11;" parent="1" vertex="1">
          <mxGeometry x="420" y="505" width="160" height="30" as="geometry" />
        </mxCell>
        <mxCell id="G4arTZ-eLfZ_415VaoW4-4" value="GET&amp;nbsp;/api/reports/daily" style="rounded=1;whiteSpace=wrap;html=1;fontFamily=Comic Sans MS;fontSize=11;" parent="1" vertex="1">
          <mxGeometry x="600" y="505" width="140" height="30" as="geometry" />
        </mxCell>
        <mxCell id="G4arTZ-eLfZ_415VaoW4-6" value="" style="rounded=0;whiteSpace=wrap;html=1;fillColor=none;fontFamily=Comic Sans MS;fontSize=11;" parent="1" vertex="1">
          <mxGeometry x="440" y="185" width="100" height="40" as="geometry" />
        </mxCell>
        <mxCell id="G4arTZ-eLfZ_415VaoW4-5" value="GET&amp;nbsp;/api/alerts" style="rounded=1;whiteSpace=wrap;html=1;fontFamily=Comic Sans MS;fontSize=11;" parent="1" vertex="1">
          <mxGeometry x="260" y="736" width="140" height="30" as="geometry" />
        </mxCell>
        <mxCell id="G4arTZ-eLfZ_415VaoW4-7" value="GET&amp;nbsp;/api/external/data" style="rounded=1;whiteSpace=wrap;html=1;fontFamily=Comic Sans MS;fontSize=11;" parent="1" vertex="1">
          <mxGeometry x="430" y="736" width="140" height="30" as="geometry" />
        </mxCell>
        <mxCell id="G4arTZ-eLfZ_415VaoW4-8" value="POST /api/sensors/data" style="rounded=1;whiteSpace=wrap;html=1;fontFamily=Comic Sans MS;fontSize=11;" parent="1" vertex="1">
          <mxGeometry x="800" y="505" width="140" height="30" as="geometry" />
        </mxCell>
        <mxCell id="G4arTZ-eLfZ_415VaoW4-9" value="" style="curved=1;endArrow=classic;html=1;rounded=0;exitX=0.5;exitY=1;exitDx=0;exitDy=0;entryX=0;entryY=0.5;entryDx=0;entryDy=0;fontFamily=Comic Sans MS;fontSize=11;" parent="1" source="G4arTZ-eLfZ_415VaoW4-2" target="X9Cq_pv23FhvsYlwHoZe-1" edge="1">
          <mxGeometry width="50" height="50" relative="1" as="geometry">
            <mxPoint x="760" y="555" as="sourcePoint" />
            <mxPoint x="810" y="505" as="targetPoint" />
            <Array as="points">
              <mxPoint x="380" y="635" />
            </Array>
          </mxGeometry>
        </mxCell>
        <mxCell id="G4arTZ-eLfZ_415VaoW4-10" value="" style="curved=1;endArrow=classic;html=1;rounded=0;exitX=0.5;exitY=1;exitDx=0;exitDy=0;entryX=0.5;entryY=0;entryDx=0;entryDy=0;fontFamily=Comic Sans MS;fontSize=11;" parent="1" source="G4arTZ-eLfZ_415VaoW4-3" target="X9Cq_pv23FhvsYlwHoZe-1" edge="1">
          <mxGeometry width="50" height="50" relative="1" as="geometry">
            <mxPoint x="335" y="575" as="sourcePoint" />
            <mxPoint x="665" y="665" as="targetPoint" />
            <Array as="points" />
          </mxGeometry>
        </mxCell>
        <mxCell id="G4arTZ-eLfZ_415VaoW4-11" value="" style="curved=1;endArrow=classic;html=1;rounded=0;exitX=0.5;exitY=1;exitDx=0;exitDy=0;entryX=1;entryY=0.25;entryDx=0;entryDy=0;fontFamily=Comic Sans MS;fontSize=11;" parent="1" source="G4arTZ-eLfZ_415VaoW4-4" target="X9Cq_pv23FhvsYlwHoZe-1" edge="1">
          <mxGeometry width="50" height="50" relative="1" as="geometry">
            <mxPoint x="510" y="545" as="sourcePoint" />
            <mxPoint x="670" y="635" as="targetPoint" />
            <Array as="points">
              <mxPoint x="710" y="595" />
            </Array>
          </mxGeometry>
        </mxCell>
        <mxCell id="G4arTZ-eLfZ_415VaoW4-12" value="" style="curved=1;endArrow=classic;html=1;rounded=0;exitX=0.5;exitY=0;exitDx=0;exitDy=0;entryX=0;entryY=0.75;entryDx=0;entryDy=0;fontFamily=Comic Sans MS;fontSize=11;" parent="1" source="G4arTZ-eLfZ_415VaoW4-5" target="X9Cq_pv23FhvsYlwHoZe-1" edge="1">
          <mxGeometry width="50" height="50" relative="1" as="geometry">
            <mxPoint x="680" y="545" as="sourcePoint" />
            <mxPoint x="680" y="635" as="targetPoint" />
            <Array as="points">
              <mxPoint x="384" y="666" />
            </Array>
          </mxGeometry>
        </mxCell>
        <mxCell id="G4arTZ-eLfZ_415VaoW4-13" value="" style="curved=1;endArrow=classic;html=1;rounded=0;exitX=0.5;exitY=0;exitDx=0;exitDy=0;entryX=0.5;entryY=1;entryDx=0;entryDy=0;fontFamily=Comic Sans MS;fontSize=11;" parent="1" source="G4arTZ-eLfZ_415VaoW4-7" target="X9Cq_pv23FhvsYlwHoZe-1" edge="1">
          <mxGeometry width="50" height="50" relative="1" as="geometry">
            <mxPoint x="840" y="545" as="sourcePoint" />
            <mxPoint x="720" y="645" as="targetPoint" />
            <Array as="points" />
          </mxGeometry>
        </mxCell>
        <mxCell id="G4arTZ-eLfZ_415VaoW4-14" value="" style="curved=1;endArrow=classic;html=1;rounded=0;exitX=0.5;exitY=1;exitDx=0;exitDy=0;entryX=0;entryY=0.5;entryDx=0;entryDy=0;fontFamily=Comic Sans MS;fontSize=11;" parent="1" source="G4arTZ-eLfZ_415VaoW4-8" target="X9Cq_pv23FhvsYlwHoZe-2" edge="1">
          <mxGeometry width="50" height="50" relative="1" as="geometry">
            <mxPoint x="1150" y="565" as="sourcePoint" />
            <mxPoint x="860" y="695" as="targetPoint" />
            <Array as="points">
              <mxPoint x="896" y="608" />
            </Array>
          </mxGeometry>
        </mxCell>
        <mxCell id="G4arTZ-eLfZ_415VaoW4-15" value="" style="curved=1;endArrow=classic;html=1;rounded=0;exitX=0.743;exitY=0.722;exitDx=0;exitDy=0;exitPerimeter=0;fontFamily=Comic Sans MS;fontSize=11;" parent="1" source="41eCFME9FWgPAuhepwrC-13" target="G4arTZ-eLfZ_415VaoW4-1" edge="1">
          <mxGeometry width="50" height="50" relative="1" as="geometry">
            <mxPoint x="590" y="555" as="sourcePoint" />
            <mxPoint x="640" y="505" as="targetPoint" />
            <Array as="points">
              <mxPoint x="700" y="425" />
            </Array>
          </mxGeometry>
        </mxCell>
        <mxCell id="G4arTZ-eLfZ_415VaoW4-16" value=". . ." style="rounded=1;whiteSpace=wrap;html=1;fontFamily=Comic Sans MS;fontStyle=1;fontSize=23;" parent="1" vertex="1">
          <mxGeometry x="720" y="895" width="120" height="60" as="geometry" />
        </mxCell>
        <mxCell id="G4arTZ-eLfZ_415VaoW4-17" value="" style="curved=1;endArrow=classic;html=1;rounded=0;exitX=0.468;exitY=0.991;exitDx=0;exitDy=0;entryX=0.5;entryY=0;entryDx=0;entryDy=0;exitPerimeter=0;fontFamily=Comic Sans MS;fontSize=11;" parent="1" source="G4arTZ-eLfZ_415VaoW4-1" target="G4arTZ-eLfZ_415VaoW4-16" edge="1">
          <mxGeometry width="50" height="50" relative="1" as="geometry">
            <mxPoint x="440" y="845" as="sourcePoint" />
            <mxPoint x="730" y="975" as="targetPoint" />
            <Array as="points">
              <mxPoint x="790" y="805" />
            </Array>
          </mxGeometry>
        </mxCell>
        <mxCell id="G4arTZ-eLfZ_415VaoW4-18" value="" style="curved=1;endArrow=classic;html=1;rounded=0;exitX=1.001;exitY=0.426;exitDx=0;exitDy=0;entryX=1;entryY=0.5;entryDx=0;entryDy=0;exitPerimeter=0;" parent="1" source="G4arTZ-eLfZ_415VaoW4-1" target="G4arTZ-eLfZ_415VaoW4-16" edge="1">
          <mxGeometry width="50" height="50" relative="1" as="geometry">
            <mxPoint x="1280" y="720" as="sourcePoint" />
            <mxPoint x="1297" y="873" as="targetPoint" />
            <Array as="points">
              <mxPoint x="1704" y="952" />
            </Array>
          </mxGeometry>
        </mxCell>
        <mxCell id="G4arTZ-eLfZ_415VaoW4-19" value="GET&amp;nbsp;/api/status" style="rounded=1;whiteSpace=wrap;html=1;fontFamily=Comic Sans MS;fontSize=11;" parent="1" vertex="1">
          <mxGeometry x="610" y="736" width="140" height="30" as="geometry" />
        </mxCell>
        <mxCell id="G4arTZ-eLfZ_415VaoW4-20" value="" style="curved=1;endArrow=classic;html=1;rounded=0;exitX=0.391;exitY=-0.027;exitDx=0;exitDy=0;fontFamily=Comic Sans MS;fontSize=11;exitPerimeter=0;entryX=1;entryY=0.5;entryDx=0;entryDy=0;" parent="1" source="G4arTZ-eLfZ_415VaoW4-19" target="X9Cq_pv23FhvsYlwHoZe-1" edge="1">
          <mxGeometry width="50" height="50" relative="1" as="geometry">
            <mxPoint x="680" y="736" as="sourcePoint" />
            <mxPoint x="726" y="648" as="targetPoint" />
            <Array as="points">
              <mxPoint x="712" y="680" />
            </Array>
          </mxGeometry>
        </mxCell>
        <mxCell id="G4arTZ-eLfZ_415VaoW4-21" value="POST /api/auth/login" style="rounded=1;whiteSpace=wrap;html=1;fontFamily=Comic Sans MS;fontSize=11;" parent="1" vertex="1">
          <mxGeometry x="975" y="505" width="140" height="30" as="geometry" />
        </mxCell>
        <mxCell id="G4arTZ-eLfZ_415VaoW4-22" value="POST /api/auth/register" style="rounded=1;whiteSpace=wrap;html=1;fontFamily=Comic Sans MS;fontSize=11;" parent="1" vertex="1">
          <mxGeometry x="1150" y="505" width="140" height="30" as="geometry" />
        </mxCell>
        <mxCell id="G4arTZ-eLfZ_415VaoW4-23" value="" style="curved=1;endArrow=classic;html=1;rounded=0;exitX=0.5;exitY=1;exitDx=0;exitDy=0;entryX=0.5;entryY=0;entryDx=0;entryDy=0;fontFamily=Comic Sans MS;fontSize=11;" parent="1" source="G4arTZ-eLfZ_415VaoW4-21" target="X9Cq_pv23FhvsYlwHoZe-2" edge="1">
          <mxGeometry width="50" height="50" relative="1" as="geometry">
            <mxPoint x="508" y="543" as="sourcePoint" />
            <mxPoint x="514" y="616" as="targetPoint" />
            <Array as="points">
              <mxPoint x="1025" y="576" />
            </Array>
          </mxGeometry>
        </mxCell>
        <mxCell id="G4arTZ-eLfZ_415VaoW4-24" value="" style="curved=1;endArrow=classic;html=1;rounded=0;exitX=0.5;exitY=1;exitDx=0;exitDy=0;entryX=1;entryY=0.5;entryDx=0;entryDy=0;fontFamily=Comic Sans MS;fontSize=11;" parent="1" source="G4arTZ-eLfZ_415VaoW4-22" target="X9Cq_pv23FhvsYlwHoZe-2" edge="1">
          <mxGeometry width="50" height="50" relative="1" as="geometry">
            <mxPoint x="1053" y="543" as="sourcePoint" />
            <mxPoint x="1058" y="616" as="targetPoint" />
            <Array as="points">
              <mxPoint x="1232" y="656" />
            </Array>
          </mxGeometry>
        </mxCell>
      </root>
    </mxGraphModel>
  </diagram>
</mxfile>
